<?xml version="1.0" encoding="utf-8"?>
<!-- Generator: Adobe Illustrator 19.2.1, SVG Export Plug-In . SVG Version: 6.00 Build 0)  -->
<svg version="1.1" id="Layer_1" xmlns="http://www.w3.org/2000/svg" xmlns:xlink="http://www.w3.org/1999/xlink" x="0px" y="0px"
	 viewBox="0 0 118.3 48.4" style="enable-background:new 0 0 118.3 48.4;" xml:space="preserve">
<style type="text/css">
	.st0{fill:#EDEDED;}
	.st1{fill:#D6D6D6;}
	.st2{enable-background:new    ;}
	.st3{fill:#8C8C8C;}
</style>
<g>
	<path class="st0" d="M18.8,3.2c0,0,3-3,4.3-3.2l-0.9,1.6c0,0,2.2-0.7,5.8,0h-2.4c0,0,6.3,0.5,8.4,4.6c2,4,1.1,5.9,0.3,7.1
		s-1.1,3.6-0.8,5.2s-0.3,7-1.9,8.6c-1.1,1.3-1.9,0.3-2.4,1.4c-0.4,1.1-1.1,2.1-2.2,2.6c-1.2,0.5-7.3-2.4-8.2-3.5
		c0,0,0.3-2.8-0.4-3.9c-0.7-1.1-1.6-1.9-1.9-4.2c-0.2-1.4-0.7-0.1-1.1-3.9c-0.4-3.8-0.7-7.5,0-8.9C16.1,5.2,17.3,3.5,18.8,3.2z"/>
	<path class="st0" d="M43.9,35.9c-0.2-2.3-2.5-2.1-6.5-3.3s-7.8-3.4-7.8-3.4c1.3,0.7,2,4.2,1.9,7.4s-0.7,8-0.7,8
		c-0.3-1-3-10.3-3-10.3l0.8-1.9l-1.1-1.3c-1.3,0.2-2.2,0.4-2.2,0.4l-0.3,2l1.2,1.4c0.9,3.1,1,10.3,1,10.3c-0.9-0.8-2.4-5-5.3-8.5
		c-3-3.5-4.3-9.8-4.3-9.8c-3.8,5.2-16.9,7.8-16.9,10.6c0,0.2,0,0.4,0,0.7c5.5,5.7,13.3,9.2,21.8,9.2c8.4,0,15.9-3.4,21.4-8.8
		C44,37.3,43.9,36.3,43.9,35.9z"/>
</g>
<path class="st1" d="M43.6,37.8l-0.3,0.3c-5.6,5.4-12.9,8.4-20.7,8.4c-8.1,0-15.6-3.2-21.2-8.9L0,39c6,6.1,14,9.4,22.6,9.4
	c8.2,0,15.9-3.1,21.8-8.6h73.9v-2H43.6z"/>
<g class="st2">
	<path class="st3" d="M57,19.6c-0.1,0.2-0.2,0.3-0.3,0.4s-0.3,0.1-0.4,0.1c-0.2,0-0.4-0.1-0.6-0.2s-0.5-0.3-0.7-0.4s-0.6-0.3-1-0.4
		s-0.8-0.2-1.3-0.2c-0.5,0-0.9,0.1-1.2,0.2s-0.6,0.3-0.9,0.5s-0.4,0.4-0.5,0.7c-0.1,0.3-0.2,0.6-0.2,0.9c0,0.4,0.1,0.8,0.4,1.1
		c0.2,0.3,0.5,0.5,0.9,0.7c0.4,0.2,0.8,0.4,1.3,0.5s1,0.3,1.5,0.5s1,0.4,1.5,0.6s0.9,0.5,1.3,0.9c0.4,0.4,0.7,0.8,0.9,1.3
		c0.2,0.5,0.4,1.2,0.4,1.9c0,0.8-0.1,1.6-0.4,2.3s-0.7,1.3-1.2,1.8c-0.5,0.5-1.2,0.9-2,1.2s-1.6,0.5-2.6,0.5c-0.6,0-1.1-0.1-1.7-0.2
		s-1.1-0.3-1.6-0.5c-0.5-0.2-1-0.5-1.4-0.7s-0.8-0.6-1.2-1l1-1.6c0.1-0.1,0.2-0.2,0.3-0.3c0.1-0.1,0.3-0.1,0.4-0.1
		c0.2,0,0.4,0.1,0.7,0.3c0.2,0.2,0.5,0.4,0.8,0.6s0.7,0.4,1.2,0.6c0.4,0.2,1,0.3,1.6,0.3c0.9,0,1.7-0.2,2.2-0.7
		c0.5-0.5,0.8-1.1,0.8-1.9c0-0.5-0.1-0.9-0.4-1.2c-0.2-0.3-0.5-0.5-0.9-0.8c-0.4-0.2-0.8-0.4-1.3-0.5s-1-0.3-1.5-0.5
		c-0.5-0.2-1-0.4-1.5-0.6c-0.5-0.2-0.9-0.5-1.3-0.9c-0.4-0.4-0.7-0.8-0.9-1.4s-0.4-1.2-0.4-2.1c0-0.7,0.1-1.3,0.4-1.9
		c0.3-0.6,0.6-1.2,1.1-1.6c0.5-0.5,1.1-0.9,1.8-1.2c0.7-0.3,1.6-0.4,2.5-0.4c1.1,0,2,0.2,2.9,0.5c0.9,0.3,1.7,0.8,2.3,1.4L57,19.6z"
		/>
	<path class="st3" d="M60.5,34.3V21.6h1.9c0.4,0,0.7,0.2,0.8,0.6l0.2,0.9c0.2-0.2,0.5-0.5,0.7-0.7c0.2-0.2,0.5-0.4,0.8-0.5
		c0.3-0.1,0.6-0.3,0.9-0.4c0.3-0.1,0.7-0.1,1-0.1c0.8,0,1.5,0.2,2,0.7s0.9,1,1.2,1.7c0.2-0.4,0.4-0.8,0.7-1.1c0.3-0.3,0.6-0.5,1-0.7
		c0.4-0.2,0.7-0.3,1.1-0.4s0.8-0.1,1.2-0.1c0.7,0,1.3,0.1,1.9,0.3s1,0.5,1.4,0.9c0.4,0.4,0.7,0.9,0.8,1.5c0.2,0.6,0.3,1.3,0.3,2v8.1
		h-3.1v-8.1c0-0.8-0.2-1.4-0.5-1.8s-0.9-0.6-1.6-0.6c-0.3,0-0.6,0.1-0.9,0.2s-0.5,0.3-0.7,0.5s-0.4,0.5-0.5,0.8
		C71,25.4,71,25.8,71,26.2v8.1h-3.1v-8.1c0-0.9-0.2-1.5-0.5-1.9c-0.3-0.4-0.8-0.6-1.5-0.6c-0.4,0-0.8,0.1-1.2,0.3
		c-0.4,0.2-0.7,0.5-1.1,0.9v9.3H60.5z"/>
	<path class="st3" d="M91.3,34.3H90c-0.3,0-0.5,0-0.7-0.1c-0.2-0.1-0.3-0.3-0.4-0.5l-0.3-0.9c-0.3,0.3-0.6,0.5-0.9,0.8
		c-0.3,0.2-0.6,0.4-1,0.6c-0.3,0.1-0.7,0.3-1.1,0.3c-0.4,0.1-0.8,0.1-1.2,0.1c-0.5,0-1-0.1-1.5-0.2c-0.5-0.1-0.8-0.4-1.2-0.7
		c-0.3-0.3-0.6-0.7-0.8-1.1s-0.3-0.9-0.3-1.5c0-0.5,0.1-1,0.4-1.4c0.3-0.5,0.7-0.9,1.3-1.3c0.6-0.4,1.4-0.7,2.3-0.9
		c1-0.2,2.2-0.4,3.6-0.4v-0.7c0-0.9-0.2-1.5-0.5-1.9c-0.4-0.4-0.9-0.6-1.6-0.6c-0.5,0-0.9,0.1-1.2,0.2c-0.3,0.1-0.6,0.2-0.9,0.4
		c-0.2,0.1-0.5,0.3-0.7,0.4s-0.4,0.2-0.7,0.2c-0.2,0-0.4-0.1-0.5-0.2s-0.3-0.2-0.4-0.4l-0.6-1c1.5-1.3,3.2-2,5.3-2
		c0.7,0,1.4,0.1,2,0.4c0.6,0.2,1.1,0.6,1.5,1s0.7,1,0.9,1.6s0.3,1.3,0.3,2V34.3z M85.4,32.4c0.3,0,0.6,0,0.9-0.1
		c0.3-0.1,0.5-0.1,0.8-0.3c0.2-0.1,0.5-0.3,0.7-0.4c0.2-0.2,0.4-0.4,0.7-0.6v-2.1c-0.9,0-1.6,0.1-2.2,0.2c-0.6,0.1-1.1,0.3-1.4,0.4
		c-0.4,0.2-0.6,0.4-0.8,0.6c-0.2,0.2-0.2,0.5-0.2,0.8c0,0.5,0.2,0.9,0.5,1.2C84.5,32.2,84.9,32.4,85.4,32.4z"/>
	<path class="st3" d="M94.3,34.3V21.6h1.8c0.3,0,0.5,0.1,0.7,0.2c0.1,0.1,0.2,0.3,0.2,0.6l0.2,1.5c0.5-0.8,1-1.4,1.6-1.9
		c0.6-0.5,1.3-0.7,2.1-0.7c0.6,0,1.1,0.1,1.6,0.4l-0.4,2.3c0,0.1-0.1,0.3-0.2,0.3c-0.1,0.1-0.2,0.1-0.3,0.1c-0.1,0-0.3,0-0.5-0.1
		s-0.5-0.1-0.9-0.1c-0.6,0-1.2,0.2-1.6,0.5c-0.5,0.4-0.8,0.9-1.2,1.5v7.9H94.3z"/>
	<path class="st3" d="M108.6,34.5c-1.1,0-1.9-0.3-2.5-0.9c-0.6-0.6-0.9-1.5-0.9-2.6v-7.1h-1.3c-0.2,0-0.3-0.1-0.4-0.2
		c-0.1-0.1-0.2-0.3-0.2-0.5V22l2-0.3l0.6-3.5c0-0.2,0.1-0.3,0.2-0.4c0.1-0.1,0.3-0.1,0.5-0.1h1.6v4h3.3v2.2h-3.3v6.9
		c0,0.4,0.1,0.7,0.3,0.9s0.5,0.3,0.8,0.3c0.2,0,0.3,0,0.5-0.1c0.1,0,0.2-0.1,0.3-0.1s0.2-0.1,0.3-0.1c0.1,0,0.1-0.1,0.2-0.1
		c0.1,0,0.2,0,0.2,0.1c0.1,0,0.1,0.1,0.2,0.2l0.9,1.5c-0.4,0.4-1,0.7-1.5,0.8C109.9,34.4,109.3,34.5,108.6,34.5z"/>
</g>
</svg>
